<?xml version="1.0" encoding="UTF-8" standalone="no"?>
<svg
   id="Layer_1"
   data-name="Layer 1"
   viewBox="0 0 476.96517 66.169996"
   version="1.1"
   sodipodi:docname="docs_logo.svg"
   inkscape:version="1.3 (0e150ed6c4, 2023-07-21)"
   width="476.96515"
   height="66.169998"
   xmlns:inkscape="http://www.inkscape.org/namespaces/inkscape"
   xmlns:sodipodi="http://sodipodi.sourceforge.net/DTD/sodipodi-0.dtd"
   xmlns="http://www.w3.org/2000/svg"
   xmlns:svg="http://www.w3.org/2000/svg">
  <sodipodi:namedview
     id="namedview10"
     pagecolor="#ffffff"
     bordercolor="#000000"
     borderopacity="0.25"
     inkscape:showpageshadow="2"
     inkscape:pageopacity="0.0"
     inkscape:pagecheckerboard="0"
     inkscape:deskcolor="#d1d1d1"
     inkscape:zoom="1.0430049"
     inkscape:cx="524.92561"
     inkscape:cy="11.025835"
     inkscape:window-width="1920"
     inkscape:window-height="1009"
     inkscape:window-x="1912"
     inkscape:window-y="-8"
     inkscape:window-maximized="1"
     inkscape:current-layer="Layer_1" />
  <defs
     id="defs1">
    <style
       id="style1">&#10;      .cls-1 {&#10;        fill: #f96900;&#10;      }&#10;&#10;      .cls-2 {&#10;        fill: #04145f;&#10;      }&#10;&#10;      .cls-3 {&#10;        fill: #0a369d;&#10;      }&#10;&#10;      .cls-4 {&#10;        fill: #489fe2;&#10;      }&#10;    </style>
  </defs>
  <g
     id="g5"
     transform="translate(0,-7.56)">
    <path
       class="cls-2"
       d="M 85.93,69.38 V 12.39 h 9.73 v 33.36 l 13.9,-17.58 h 11.12 l -15.62,19.71 16.93,21.51 H 110.54 L 95.66,50.34 v 19.05 h -9.73 z"
       id="path1" />
    <path
       class="cls-2"
       d="m 154.21,34.14 v -5.97 h 9.81 v 41.21 h -9.81 v -5.97 c -1.39,4.01 -6.38,6.87 -13.17,6.87 -5.81,0 -10.71,-2.04 -14.72,-6.13 -3.92,-4.17 -5.89,-9.24 -5.89,-15.37 0,-6.13 1.96,-11.2 5.89,-15.29 4.01,-4.17 8.91,-6.21 14.72,-6.21 6.79,0 11.78,2.86 13.17,6.87 z m -2.94,23.63 c 2.45,-2.37 3.68,-5.4 3.68,-8.99 0,-3.59 -1.23,-6.62 -3.68,-9 -2.37,-2.37 -5.4,-3.6 -8.91,-3.6 -3.51,0 -6.38,1.23 -8.75,3.6 -2.29,2.37 -3.43,5.4 -3.43,9 0,3.6 1.15,6.62 3.43,8.99 2.37,2.37 5.23,3.6 8.75,3.6 3.52,0 6.54,-1.23 8.91,-3.6 z"
       id="path2" />
    <path
       class="cls-2"
       d="M 172.52,69.38 V 28.17 h 9.73 v 5.89 c 1.96,-4.01 6.62,-6.71 12.51,-6.71 9.81,0 15.62,6.3 15.62,16.52 v 25.51 h -9.81 V 45.26 c 0,-5.64 -3.27,-9.16 -8.75,-9.16 -5.48,0 -9.57,3.93 -9.57,9.57 v 23.71 z"
       id="path3" />
    <path
       class="cls-2"
       d="m 215.2,48.77 c 0,-6.13 2.21,-11.37 6.54,-15.54 4.33,-4.17 9.65,-6.3 15.95,-6.3 6.3,0 11.61,2.13 15.95,6.3 4.34,4.17 6.54,9.4 6.54,15.54 0,6.14 -2.21,11.37 -6.54,15.54 -4.33,4.17 -9.65,6.3 -15.95,6.3 -6.3,0 -11.61,-2.13 -15.95,-6.3 -4.34,-4.17 -6.54,-9.4 -6.54,-15.54 z m 31.56,9.24 c 2.45,-2.54 3.68,-5.56 3.68,-9.24 0,-3.68 -1.23,-6.71 -3.68,-9.16 -2.45,-2.53 -5.48,-3.76 -9.08,-3.76 -3.6,0 -6.71,1.23 -9.16,3.76 -2.37,2.45 -3.6,5.48 -3.6,9.16 0,3.68 1.23,6.71 3.6,9.24 2.45,2.45 5.48,3.68 9.16,3.68 3.68,0 6.62,-1.23 9.08,-3.68 z"
       id="path4" />
    <path
       class="cls-2"
       d="m 297.38,34.14 v -5.97 h 9.81 v 41.21 h -9.81 v -5.97 c -1.39,4.01 -6.38,6.87 -13.17,6.87 -5.81,0 -10.71,-2.04 -14.72,-6.13 -3.92,-4.17 -5.89,-9.24 -5.89,-15.37 0,-6.13 1.96,-11.2 5.89,-15.29 4.01,-4.17 8.91,-6.21 14.72,-6.21 6.79,0 11.78,2.86 13.17,6.87 z m -2.94,23.63 c 2.45,-2.37 3.68,-5.4 3.68,-8.99 0,-3.59 -1.23,-6.62 -3.68,-9 -2.37,-2.37 -5.4,-3.6 -8.91,-3.6 -3.51,0 -6.38,1.23 -8.75,3.6 -2.29,2.37 -3.43,5.4 -3.43,9 0,3.6 1.15,6.62 3.43,8.99 2.37,2.37 5.23,3.6 8.75,3.6 3.52,0 6.54,-1.23 8.91,-3.6 z"
       id="path5" />
  </g>
  <g
     id="g10"
     transform="translate(0,-7.56)">
    <polygon
       class="cls-4"
       points="33.28,32.25 33.05,11.51 18.85,7.56 15.32,21.87 "
       id="polygon5" />
    <polygon
       class="cls-4"
       points="28.59,40.63 10.37,30.71 0,41.18 10.77,51.25 "
       id="polygon6" />
    <polygon
       class="cls-1"
       points="42.9,32.27 43.19,11.52 57.41,7.62 60.9,21.94 "
       id="polygon7" />
    <polygon
       class="cls-3"
       points="43.1,49.04 61.06,59.42 57.53,73.73 43.33,69.79 "
       id="polygon8" />
    <polygon
       class="cls-3"
       points="33.49,49.02 33.2,69.76 18.99,73.66 15.5,59.34 "
       id="polygon9" />
    <polygon
       class="cls-1"
       points="47.81,40.65 66.02,50.58 76.4,40.11 65.63,30.04 "
       id="polygon10" />
  </g>
  <text
     xml:space="preserve"
     style="font-weight:300;font-size:82.0302px;font-family:'Hurme Geometric Sans 1';-inkscape-font-specification:'Hurme Geometric Sans 1, Light';letter-spacing:-4.03px;fill:#04145f;fill-opacity:1;stroke-width:2.4881"
     x="316.95575"
     y="61.781002"
     id="text10"><tspan
       sodipodi:role="line"
       id="tspan10"
       x="316.95575"
       y="61.781002"
       style="letter-spacing:-4.03px;fill:#04145f;fill-opacity:1;stroke-width:2.4881">docs</tspan></text>
</svg>
